<svg xmlns="http://www.w3.org/2000/svg" viewBox="0 0 360 80" width="360" height="80">
  <defs>
    <linearGradient id="accent-grad-w" x1="0%" y1="0%" x2="100%" y2="100%">
      <stop offset="0%" style="stop-color:#E8650A"/>
      <stop offset="100%" style="stop-color:#F5920A"/>
    </linearGradient>
  </defs>

  <!-- Icon: stylized building -->
  <g transform="translate(0, 8)">
    <rect x="8" y="20" width="24" height="40" rx="2" fill="#ffffff"/>
    <rect x="36" y="10" width="24" height="50" rx="2" fill="#ffffff"/>
    <polygon points="6,22 34,22 20,6" fill="url(#accent-grad-w)"/>
    <polygon points="34,12 62,12 48,0" fill="url(#accent-grad-w)"/>
    <rect x="14" y="28" width="6" height="6" rx="1" fill="#1A2744"/>
    <rect x="22" y="28" width="6" height="6" rx="1" fill="#1A2744"/>
    <rect x="14" y="40" width="6" height="6" rx="1" fill="#1A2744"/>
    <rect x="22" y="40" width="6" height="6" rx="1" fill="#1A2744"/>
    <rect x="42" y="18" width="6" height="6" rx="1" fill="#1A2744"/>
    <rect x="50" y="18" width="6" height="6" rx="1" fill="#1A2744"/>
    <rect x="42" y="30" width="6" height="6" rx="1" fill="#1A2744"/>
    <rect x="50" y="30" width="6" height="6" rx="1" fill="#1A2744"/>
    <rect x="42" y="42" width="6" height="6" rx="1" fill="#1A2744"/>
    <rect x="50" y="42" width="6" height="6" rx="1" fill="#1A2744"/>
    <rect x="17" y="50" width="10" height="10" rx="1.5" fill="url(#accent-grad-w)"/>
  </g>

  <!-- ELCR text white -->
  <text x="78" y="46" font-family="'Oswald', 'Arial Black', sans-serif" font-weight="700" font-size="44" letter-spacing="3" fill="#ffffff">ELCR</text>

  <!-- Orange accent bar -->
  <rect x="78" y="52" width="50" height="3" rx="1.5" fill="url(#accent-grad-w)"/>

  <!-- Tagline -->
  <text x="78" y="70" font-family="'Inter', 'Helvetica Neue', sans-serif" font-weight="400" font-size="11" letter-spacing="0.5" fill="rgba(255,255,255,0.7)">Construction · Maçonnerie · Rénovation</text>
</svg>
